<?xml version="1.0" standalone="no"?>
<!DOCTYPE svg PUBLIC "-//W3C//DTD SVG 20010904//EN"
 "http://www.w3.org/TR/2001/REC-SVG-20010904/DTD/svg10.dtd">
<svg version="1.0" xmlns="http://www.w3.org/2000/svg"
 width="512.000000pt" height="512.000000pt" viewBox="0 0 512.000000 512.000000"
 preserveAspectRatio="xMidYMid meet">
<metadata>
Created by potrace 1.14, written by Peter Selinger 2001-2017
</metadata>
<g transform="translate(0.000000,512.000000) scale(0.100000,-0.100000)"
fill="#000000" stroke="none">
<path d="M975 5110 c-147 -23 -292 -73 -410 -142 -298 -175 -488 -449 -550
-796 -22 -120 -20 -3122 1 -3237 28 -147 120 -374 175 -434 9 -9 18 -22 20
-28 12 -32 145 -174 209 -222 19 -14 37 -28 40 -31 44 -44 262 -154 350 -175
8 -2 47 -12 85 -22 65 -16 178 -17 1635 -20 1702 -3 1636 -5 1809 53 83 27
249 107 278 133 10 9 36 28 58 43 66 46 135 115 215 214 91 114 173 298 216
484 5 19 9 742 10 1605 2 1684 4 1633 -47 1793 -44 137 -106 252 -198 367 -56
70 -148 165 -160 165 -3 0 -20 13 -36 29 -69 64 -299 175 -405 196 -42 8 -80
16 -100 22 -34 10 -3132 13 -3195 3z"/>
</g>
</svg>
